<?xml version="1.0" standalone="no"?>
<!DOCTYPE svg PUBLIC "-//W3C//DTD SVG 20010904//EN"
 "http://www.w3.org/TR/2001/REC-SVG-20010904/DTD/svg10.dtd">
<svg version="1.0" xmlns="http://www.w3.org/2000/svg"
 width="320.000000pt" height="320.000000pt" viewBox="0 0 320.000000 320.000000"
 preserveAspectRatio="xMidYMid meet">
<metadata>
Created by potrace 1.11, written by Peter Selinger 2001-2013
</metadata>
<g transform="translate(0.000000,320.000000) scale(0.100000,-0.100000)"
fill="#000000" stroke="none">
<path d="M1627 3019 c7 -7 15 -10 18 -7 3 3 -2 9 -12 12 -14 6 -15 5 -6 -5z"/>
<path d="M1385 3000 c15 -25 15 -42 -1 -36 -9 3 -12 1 -9 -5 4 -5 12 -8 18 -6
17 5 16 35 -1 49 -13 11 -14 11 -7 -2z"/>
<path d="M1550 3005 c0 -5 5 -17 10 -25 5 -8 10 -10 10 -5 0 6 -5 17 -10 25
-5 8 -10 11 -10 5z"/>
<path d="M1480 2980 c-23 -7 -23 -8 -3 -9 12 -1 25 4 28 9 3 6 5 10 3 9 -2 -1
-14 -5 -28 -9z"/>
<path d="M1643 2973 c-3 -10 -8 -21 -10 -25 -2 -5 0 -8 5 -8 5 0 12 11 14 25
6 29 0 33 -9 8z"/>
<path d="M1506 2964 c-11 -8 -16 -14 -10 -14 13 0 39 18 34 24 -3 2 -14 -2
-24 -10z"/>
<path d="M1583 2970 c2 -8 9 -14 15 -13 15 3 23 -25 10 -33 -7 -5 -8 -3 -3 5
5 9 -1 11 -24 8 -17 -3 -31 -1 -31 4 0 5 -5 9 -11 9 -5 0 -8 -4 -5 -9 3 -4
-10 -7 -29 -5 -19 1 -35 -2 -35 -7 0 -5 -11 -7 -25 -5 -14 3 -25 1 -25 -3 0
-4 -7 -8 -15 -8 -8 0 -15 4 -15 9 0 4 6 8 14 8 8 0 17 7 20 16 4 11 -3 9 -27
-8 -35 -25 -35 -25 -73 -27 -14 0 -23 -4 -21 -8 8 -13 -67 -13 -76 0 -6 8 -7
6 -3 -5 3 -10 1 -20 -4 -23 -13 -8 -18 18 -7 40 7 13 1 11 -17 -8 -28 -30 -35
-47 -11 -27 9 8 15 8 15 2 0 -13 -36 -25 -50 -17 -6 4 -8 11 -5 16 4 5 1 9 -5
9 -7 0 -9 -8 -5 -21 5 -15 4 -19 -4 -15 -6 4 -11 3 -11 -2 0 -9 -47 -27 -62
-24 -5 1 -8 -2 -8 -7 0 -5 -7 -12 -16 -15 -8 -3 -13 -2 -10 3 3 5 -1 12 -10
15 -21 8 -24 8 -24 -5 0 -5 5 -7 10 -4 6 3 10 -1 10 -10 0 -9 -4 -13 -10 -10
-5 3 -10 1 -10 -4 0 -6 -9 -11 -21 -11 -11 0 -17 -4 -14 -10 3 -5 2 -10 -4
-10 -5 0 -14 7 -19 16 -8 14 -11 11 -20 -15 -10 -28 -42 -45 -42 -21 0 6 -5
10 -12 10 -9 0 -9 -3 0 -12 16 -16 15 -28 -3 -28 -8 0 -14 5 -13 11 2 6 -4 14
-12 16 -10 3 -11 2 -4 -4 14 -10 10 -42 -7 -57 -9 -8 -10 -7 -4 4 4 8 -8 -2
-28 -22 -23 -24 -42 -35 -52 -32 -11 5 -14 1 -9 -12 5 -18 5 -18 -9 -1 -8 9
-18 17 -22 17 -4 0 -2 -6 4 -14 6 -7 9 -21 5 -30 -5 -12 -10 -13 -25 -5 -15 8
-21 6 -25 -6 -4 -9 -4 -19 0 -22 3 -4 6 1 6 11 0 10 5 14 11 11 7 -5 3 -16
-12 -31 -18 -19 -25 -21 -42 -13 -13 7 -17 7 -13 1 3 -6 1 -12 -6 -15 -7 -2
-5 -3 5 -2 9 2 17 -1 17 -6 0 -5 -5 -9 -11 -9 -5 0 -7 -4 -4 -10 4 -6 -1 -7
-11 -3 -14 5 -16 3 -11 -11 4 -10 3 -15 -3 -11 -6 3 -10 1 -10 -4 0 -6 -7 -11
-15 -11 -9 0 -12 -6 -9 -15 9 -23 -25 -30 -42 -9 -14 18 -14 18 -4 -4 9 -18 8
-23 -5 -28 -14 -6 -13 -8 2 -20 16 -12 15 -13 -12 -8 -29 5 -29 4 -10 -10 13
-10 16 -18 9 -23 -6 -5 -21 -27 -34 -50 -13 -23 -27 -40 -32 -37 -4 3 -15 1
-24 -4 -15 -8 -15 -10 0 -15 11 -5 15 -3 10 5 -4 7 -3 8 4 4 20 -12 13 -29 -9
-23 -17 4 -19 3 -10 -6 20 -20 11 -30 -11 -11 l-22 19 16 -23 c17 -25 13 -66
-5 -55 -6 4 -8 0 -4 -10 3 -9 2 -17 -3 -19 -5 -2 -11 -14 -14 -28 -2 -14 -5
-27 -6 -30 -2 -3 -2 -9 -1 -13 1 -4 -6 -10 -14 -13 -8 -4 -15 -10 -15 -16 0
-5 6 -6 13 -2 8 6 8 3 -1 -9 -8 -9 -11 -21 -7 -27 4 -6 3 -9 -2 -8 -4 2 -19
-5 -33 -15 -13 -9 -19 -17 -13 -17 7 0 15 5 18 10 3 6 11 10 17 10 7 0 6 -5
-2 -15 -6 -8 -9 -19 -5 -26 5 -8 1 -9 -13 -5 -21 7 -39 -18 -21 -30 5 -3 7
-15 3 -27 -6 -22 -6 -22 11 -2 16 20 16 20 5 -3 -6 -12 -8 -28 -4 -34 4 -6 3
-8 -2 -5 -6 3 -11 -16 -12 -46 -5 -163 -9 -180 -33 -150 -12 15 -12 16 3 10
10 -3 18 -2 18 3 0 13 -27 13 -35 1 -7 -12 24 -43 36 -36 21 14 7 -14 -16 -29
-29 -19 -39 -20 -29 -3 6 9 5 9 -8 0 -8 -7 -18 -11 -21 -8 -4 3 -5 2 -2 -2 10
-13 38 -12 61 4 22 14 24 14 24 -1 0 -10 -4 -15 -9 -11 -5 3 -13 0 -17 -6 -4
-8 -3 -9 4 -5 7 4 12 2 12 -4 0 -6 5 -8 11 -4 8 5 8 1 0 -13 -6 -11 -7 -24 -3
-28 4 -3 8 -23 10 -43 1 -20 3 -47 4 -59 1 -13 5 -23 9 -23 4 0 6 -8 4 -17 -1
-10 2 -26 7 -37 7 -12 7 -16 0 -12 -6 3 -9 -2 -7 -11 2 -10 4 -25 4 -33 1 -12
3 -12 10 -2 6 10 10 6 14 -15 3 -15 0 -34 -5 -41 -8 -9 -7 -11 6 -6 21 8 21
-5 -1 -22 -16 -12 -16 -12 5 -7 13 3 22 1 22 -6 0 -7 -4 -10 -8 -7 -4 2 -14 0
-22 -6 -13 -8 -13 -9 1 -5 23 7 33 -3 51 -49 9 -22 30 -63 46 -91 23 -39 28
-54 19 -63 -9 -10 -8 -12 6 -7 21 8 23 -11 2 -19 -8 -4 -15 -14 -14 -23 0 -10
2 -11 6 -3 2 6 10 9 15 6 7 -4 8 -2 4 4 -4 7 -2 12 3 12 6 0 11 -4 11 -9 0 -5
7 -17 16 -25 8 -9 11 -16 5 -16 -7 0 -9 -11 -7 -24 2 -14 -1 -27 -7 -30 -8 -3
-7 -5 2 -5 11 -1 11 -4 0 -18 -13 -16 -12 -17 4 -4 9 8 15 16 12 19 -2 3 3 11
13 19 14 10 14 12 1 8 -10 -4 -16 0 -16 10 0 8 4 15 8 15 15 0 38 -44 35 -64
-2 -12 -1 -15 1 -8 7 20 21 14 35 -18 7 -17 21 -33 31 -36 10 -3 16 -8 13 -12
-3 -3 3 -11 14 -19 11 -8 25 -24 30 -36 8 -15 3 -13 -14 8 -14 17 -26 25 -26
19 0 -18 42 -56 51 -47 5 5 31 -11 62 -40 51 -47 51 -49 32 -64 -19 -15 -19
-15 4 -8 18 5 22 4 16 -5 -5 -8 -4 -11 3 -6 6 4 9 14 6 24 -5 15 -4 15 6 -1 6
-9 16 -14 22 -11 7 4 8 2 4 -4 -4 -7 -1 -12 8 -12 9 0 16 -5 16 -12 0 -6 3 -9
6 -5 4 3 21 -5 39 -18 17 -14 35 -22 39 -17 4 4 6 0 4 -8 -2 -8 4 -15 13 -15
20 0 51 -24 44 -35 -2 -4 3 -16 11 -26 9 -10 13 -13 9 -6 -3 6 -1 12 5 12 6 0
13 -7 16 -15 4 -8 10 -13 14 -10 4 3 11 -2 14 -11 4 -9 13 -14 21 -10 9 3 18
-1 21 -9 4 -8 11 -15 17 -15 5 0 2 8 -7 19 -15 17 -15 19 -1 25 23 8 27 8 21
-3 -8 -13 4 -42 15 -35 5 3 9 10 9 15 0 6 -5 7 -12 3 -7 -4 -8 -3 -4 5 6 9 11
9 21 1 8 -7 18 -9 23 -7 4 3 14 2 21 -2 9 -6 10 -11 2 -15 -6 -4 -11 -2 -11 3
0 19 -38 -11 -44 -34 -5 -17 -3 -17 13 5 17 21 21 22 37 10 11 -9 15 -10 10
-2 -4 6 -4 12 1 13 4 0 16 2 26 4 24 5 21 -10 -5 -28 l-23 -15 22 1 c12 1 20
3 18 5 -6 6 22 32 34 32 6 0 11 -5 11 -11 0 -5 -6 -7 -12 -3 -10 6 -10 5 -2
-7 7 -8 14 -23 17 -34 4 -12 5 -9 4 10 -2 23 3 30 18 32 11 2 14 0 8 -3 -7 -3
-13 -10 -13 -15 0 -6 7 -6 18 0 10 6 34 8 53 5 19 -3 44 -6 56 -7 12 -1 20 -4
17 -8 -2 -4 3 -12 10 -18 11 -9 16 -9 22 0 4 8 3 9 -4 5 -7 -4 -12 -1 -12 8 0
10 6 13 15 10 8 -4 15 -10 15 -15 0 -5 5 -9 11 -9 5 0 8 4 5 8 -3 5 20 8 50 8
40 -1 53 -4 49 -14 -2 -7 2 -15 10 -18 8 -4 12 -11 8 -18 -3 -6 -3 -8 2 -4 4
4 15 2 23 -5 13 -10 14 -9 8 1 -4 7 -2 20 6 30 11 15 11 16 -3 4 -20 -15 -50
-6 -42 14 3 8 9 14 15 14 5 0 6 -4 3 -10 -3 -5 -1 -10 4 -10 6 0 11 4 11 9 0
5 7 12 16 15 8 3 13 2 10 -3 -3 -4 1 -17 9 -27 14 -18 15 -18 12 6 -2 24 0 25
60 24 34 0 61 2 59 5 -2 3 9 7 25 8 16 1 29 -2 29 -7 0 -5 -8 -6 -17 -3 -15 6
-16 5 -3 -9 14 -15 16 -14 26 8 5 13 13 22 16 18 4 -3 13 -2 20 2 7 5 22 10
33 12 36 7 40 8 52 15 6 4 14 4 17 -1 2 -4 -4 -13 -15 -20 -15 -10 -19 -10
-19 0 0 9 -3 9 -9 -2 -17 -25 -1 -30 29 -9 18 14 26 27 23 38 -4 9 -3 13 2 9
4 -4 17 -3 28 3 10 6 17 7 14 2 -3 -5 3 -14 14 -21 11 -7 19 -8 19 -2 0 5 -4
10 -8 10 -5 0 -9 7 -9 15 0 8 8 15 17 15 9 0 21 5 28 12 6 6 14 9 18 6 3 -4
-6 -13 -20 -20 -24 -13 -25 -15 -12 -33 15 -20 15 -20 10 1 -4 14 0 23 11 28
13 5 16 2 11 -9 -3 -10 -2 -13 4 -10 6 4 10 12 9 18 -3 26 2 37 16 37 8 0 15
6 15 13 0 8 3 7 10 -3 7 -11 4 -18 -12 -26 -18 -10 -18 -12 -4 -17 10 -4 15
-3 12 2 -3 5 1 12 10 15 10 4 13 13 9 26 -5 16 -3 19 11 13 13 -5 15 -3 9 7
-5 8 -4 11 2 7 6 -4 16 0 23 9 10 11 15 12 21 3 4 -8 9 -4 14 10 3 11 12 21
19 21 8 0 19 7 26 15 10 12 16 13 27 4 11 -9 12 -9 7 4 -3 10 3 20 18 28 13 6
26 17 30 23 5 7 8 4 8 -6 0 -10 -4 -18 -10 -18 -5 0 -15 -10 -21 -22 -12 -22
-11 -22 14 2 15 14 27 32 27 40 0 16 28 43 48 48 7 1 12 -3 12 -10 0 -6 3 -8
6 -5 4 4 1 13 -5 21 -8 10 -9 16 -1 21 5 3 13 -1 16 -9 3 -9 11 -16 17 -16 7
0 7 4 -1 12 -17 17 -15 28 4 28 9 0 12 5 8 13 -4 6 -4 9 1 5 4 -4 14 0 21 10
12 16 13 16 14 0 0 -21 16 -32 26 -17 4 7 3 9 -3 6 -6 -4 -13 3 -16 15 -4 15
1 28 16 42 13 12 22 24 22 27 0 9 32 39 37 34 2 -3 11 11 18 30 8 19 18 35 22
35 5 0 6 -4 3 -10 -3 -5 -2 -10 4 -10 5 0 9 9 8 19 0 11 -5 17 -11 14 -5 -4
-6 -1 -2 6 5 7 14 10 22 7 8 -3 21 5 30 19 9 14 21 22 27 18 6 -4 7 -1 3 6 -5
7 -1 20 8 29 11 13 12 21 5 32 -9 13 -10 12 -5 -2 3 -11 -3 -23 -14 -31 -11
-8 -18 -16 -16 -18 3 -2 -4 -15 -14 -29 -27 -35 -25 -10 3 31 24 36 65 119 69
141 2 7 8 16 13 20 6 4 10 13 10 19 0 7 8 13 18 15 11 1 22 6 25 10 4 4 -1 4
-10 1 -10 -3 -20 -2 -23 3 -4 6 -1 10 5 10 6 0 8 5 5 10 -3 6 -1 10 4 10 6 0
11 -4 11 -10 0 -5 5 -10 11 -10 6 0 4 9 -5 22 -9 13 -12 27 -7 37 5 9 7 24 6
33 -3 15 0 16 18 7 18 -9 20 -9 10 2 -18 18 -16 27 7 34 11 3 20 11 20 18 0 8
-3 8 -12 -1 -17 -17 -28 -15 -28 4 0 8 5 12 10 9 6 -3 10 -1 10 4 0 6 -5 11
-12 11 -6 0 -8 3 -4 7 8 8 32 14 63 16 12 0 20 4 17 8 -2 4 -16 5 -31 3 l-26
-5 18 27 c14 21 15 28 4 35 -7 4 -16 5 -19 2 -3 -3 1 -8 7 -10 10 -3 9 -10 -2
-27 -8 -12 -12 -27 -8 -32 4 -5 1 -4 -6 3 -11 10 -12 15 -2 27 7 8 10 19 7 25
-3 5 -3 16 0 25 5 12 11 13 24 6 10 -6 22 -10 27 -10 4 1 -5 8 -22 17 -18 10
-25 18 -17 21 10 3 10 7 0 20 -8 9 -8 13 -2 9 7 -4 15 0 18 9 3 8 2 12 -4 9
-15 -9 -12 5 5 21 17 18 20 34 4 34 -5 0 -7 -4 -4 -10 3 -5 1 -10 -5 -10 -7 0
-10 7 -7 15 4 8 2 17 -2 20 -5 3 -7 14 -4 25 3 11 8 18 12 16 3 -2 17 2 31 11
17 10 19 12 5 8 -37 -12 -40 -10 -41 20 -1 17 -3 32 -4 35 -2 7 -11 101 -11
123 0 9 -3 16 -7 13 -4 -2 -7 11 -7 31 1 19 7 38 14 42 10 6 10 10 1 16 -6 4
-9 13 -6 21 7 18 -3 44 -16 44 -6 0 -5 -7 2 -15 10 -12 10 -19 2 -27 -9 -9
-12 -7 -12 8 0 11 -7 29 -15 40 -17 25 -10 35 19 30 12 -2 15 -1 9 1 -7 3 -13
8 -13 13 0 5 -8 7 -17 3 -15 -5 -14 -3 2 11 20 17 20 17 -5 10 -14 -3 -22 -3
-18 1 4 4 1 17 -7 29 -8 11 -15 31 -15 43 0 13 -5 22 -12 20 -7 -1 -12 3 -13
8 -2 29 -19 71 -38 99 -12 17 -23 40 -25 51 -2 16 -1 17 7 5 8 -12 10 -11 8 7
0 12 -5 19 -9 17 -8 -5 -12 9 -9 36 2 13 0 13 -8 1 -6 -10 -6 -21 0 -32 6 -11
5 -20 -1 -24 -5 -3 -10 -1 -10 5 0 11 -33 62 -57 88 -15 16 -17 46 -3 37 6 -3
10 -1 10 4 0 14 -17 14 -25 0 -10 -15 -38 28 -31 47 4 10 2 12 -6 8 -13 -8
-78 64 -78 88 0 9 -5 20 -11 24 -8 4 -9 -1 -4 -17 7 -22 7 -22 -10 -5 -18 18
-18 19 6 37 20 16 20 18 4 12 -11 -3 -23 -10 -26 -15 -8 -13 -32 -1 -48 24
-11 18 -11 20 3 15 10 -4 20 2 27 16 7 12 8 19 4 15 -4 -4 -16 3 -27 15 l-20
22 16 -25 c20 -30 20 -41 2 -34 -8 3 -17 1 -21 -5 -4 -8 -11 -7 -21 3 -18 18
-19 32 -1 17 14 -11 27 -5 27 13 0 6 -4 5 -9 -3 -7 -11 -11 -10 -20 6 -5 11
-7 24 -3 28 4 5 2 5 -4 2 -7 -4 -24 3 -39 14 -20 17 -29 19 -38 10 -9 -9 -8
-11 7 -5 15 6 17 4 11 -6 -5 -8 -4 -11 1 -7 12 7 61 -29 52 -39 -4 -3 -13 0
-21 7 -7 8 -32 23 -55 34 -23 11 -42 24 -42 28 0 5 5 5 12 1 7 -4 8 -3 4 4 -4
7 -3 12 3 12 5 0 12 -6 14 -12 4 -10 6 -10 6 -1 2 21 -20 25 -40 7 -10 -9 -19
-13 -19 -8 0 5 -10 20 -21 34 -14 16 -19 19 -15 8 7 -22 -1 -23 -20 -3 -9 8
-12 15 -8 15 4 0 0 8 -9 18 -10 10 -14 22 -10 25 3 4 2 7 -4 7 -6 0 -14 -7
-17 -16 -9 -22 -7 -31 3 -16 6 10 10 10 20 -2 8 -10 9 -16 1 -21 -5 -3 -10 -1
-10 5 0 6 -5 8 -10 5 -6 -3 -13 1 -16 9 -3 9 -10 16 -16 16 -5 0 -6 -4 -3 -10
3 -5 1 -10 -4 -10 -6 0 -11 4 -11 8 0 5 -6 9 -12 9 -7 0 -31 8 -53 18 -22 10
-47 19 -55 20 -16 3 -37 9 -85 23 -30 8 -40 30 -20 44 7 5 7 8 -1 8 -5 0 -19
-7 -30 -15 -18 -15 -18 -15 0 -8 14 4 17 3 12 -6 -5 -7 -15 -9 -25 -5 -9 4
-28 6 -43 5 -16 -1 -28 4 -28 10 0 6 6 9 14 6 18 -7 40 17 33 35 -3 8 -6 6 -6
-5 -1 -10 -5 -16 -11 -12 -5 3 -18 -3 -29 -14 -11 -11 -22 -16 -26 -13 -3 4
-32 7 -63 9 -45 2 -60 6 -74 25 -10 13 -18 19 -18 13 0 -5 -5 -3 -11 5 -9 13
-10 13 -6 0z m-1063 -580 c0 -5 -5 -10 -11 -10 -5 0 -7 5 -4 10 3 6 8 10 11
10 2 0 4 -4 4 -10z m-233 -516 c-9 -9 -28 6 -21 18 4 6 10 6 17 -1 6 -6 8 -13
4 -17z m2643 6 c0 -5 -4 -10 -10 -10 -5 0 -10 5 -10 10 0 6 5 10 10 10 6 0 10
-4 10 -10z m-1900 -1512 c0 -5 5 -6 10 -3 6 3 10 1 10 -5 0 -6 4 -9 8 -6 13 8
35 -11 28 -23 -11 -17 -26 -13 -19 6 4 9 2 14 -3 11 -11 -7 -76 27 -68 35 8 8
34 -3 34 -15z"/>
<path d="M1708 2973 c6 -2 18 -2 25 0 6 3 1 5 -13 5 -14 0 -19 -2 -12 -5z"/>
<path d="M1321 2957 c-9 -11 -7 -17 6 -28 16 -13 17 -12 5 3 -10 13 -10 17 0
21 7 2 10 7 7 11 -3 4 -11 0 -18 -7z"/>
<path d="M1895 2960 c-3 -5 -1 -10 4 -10 6 0 11 5 11 10 0 6 -2 10 -4 10 -3 0
-8 -4 -11 -10z"/>
<path d="M1268 2953 c6 -2 9 -10 6 -15 -4 -7 -2 -8 4 -4 18 11 14 26 -5 25
-11 0 -13 -3 -5 -6z"/>
<path d="M1446 2947 c-16 -12 -16 -14 -3 -14 9 0 18 6 21 14 3 7 4 13 3 13 -2
0 -11 -6 -21 -13z"/>
<path d="M1690 2951 c-8 -6 -18 -7 -24 -4 -5 3 -6 1 -2 -5 5 -9 13 -9 27 -2
10 6 19 13 19 15 0 7 -3 6 -20 -4z"/>
<path d="M1744 2945 c-18 -14 -18 -14 4 -8 12 3 22 9 22 14 0 12 -3 11 -26 -6z"/>
<path d="M1350 2940 c0 -5 5 -10 10 -10 6 0 10 5 10 10 0 6 -4 10 -10 10 -5 0
-10 -4 -10 -10z"/>
<path d="M1836 2933 c-6 -14 -5 -15 5 -6 7 7 10 15 7 18 -3 3 -9 -2 -12 -12z"/>
<path d="M1923 2938 c-22 -28 -23 -36 -6 -34 10 2 24 -4 31 -13 11 -14 11 -13
2 7 -6 12 -15 20 -21 17 -5 -4 -9 -2 -9 4 0 5 8 15 18 20 9 6 12 11 6 11 -6 0
-16 -6 -21 -12z"/>
<path d="M1159 2938 c-6 -21 -5 -38 1 -38 5 0 8 9 7 20 -1 17 -5 26 -8 18z"/>
<path d="M1247 2926 c-3 -8 -2 -18 3 -21 13 -8 20 9 11 24 -6 10 -10 9 -14 -3z"/>
<path d="M1956 2932 c-2 -4 -1 -14 4 -22 7 -11 9 -9 7 8 -1 24 -3 26 -11 14z"/>
<path d="M1285 2920 c-3 -6 1 -7 9 -4 18 7 21 14 7 14 -6 0 -13 -4 -16 -10z"/>
<path d="M1991 2913 c9 -10 7 -14 -6 -19 -13 -5 -14 -9 -3 -15 21 -14 26 -11
25 19 -1 16 -7 29 -14 29 -9 0 -10 -4 -2 -14z"/>
<path d="M2028 2918 c10 -13 10 -17 0 -21 -9 -4 -9 -6 -1 -6 20 -2 24 16 5 30
-15 13 -16 12 -4 -3z"/>
<path d="M2155 2891 c-3 -5 -2 -12 3 -15 5 -3 9 1 9 9 0 17 -3 19 -12 6z"/>
<path d="M986 2882 c-3 -5 1 -9 9 -9 8 0 12 4 9 9 -3 4 -7 8 -9 8 -2 0 -6 -4
-9 -8z"/>
<path d="M1100 2880 c13 -9 7 -14 -12 -11 -4 0 -12 -9 -18 -22 -10 -20 -10
-20 3 -5 8 10 17 15 21 11 9 -9 27 18 20 29 -3 4 -11 8 -17 8 -7 0 -6 -4 3
-10z"/>
<path d="M2043 2883 c-10 -3 -10 -8 1 -19 18 -18 32 -18 17 -1 -6 8 -8 17 -4
20 7 8 4 8 -14 0z"/>
<path d="M2070 2880 c0 -5 5 -10 11 -10 5 0 7 5 4 10 -3 6 -8 10 -11 10 -2 0
-4 -4 -4 -10z"/>
<path d="M2255 2869 c-4 -6 -5 -12 -2 -15 2 -3 7 2 10 11 7 17 1 20 -8 4z"/>
<path d="M2110 2851 c-7 -15 -7 -19 5 -17 8 1 18 6 22 11 5 4 2 5 -6 0 -11 -6
-13 -4 -8 8 9 23 0 21 -13 -2z"/>
<path d="M2146 2857 c3 -10 9 -15 12 -12 3 3 0 11 -7 18 -10 9 -11 8 -5 -6z"/>
<path d="M1015 2851 c-10 -17 17 -24 31 -7 8 9 9 11 2 6 -16 -13 -31 -13 -23
0 3 6 4 10 1 10 -3 0 -7 -4 -11 -9z"/>
<path d="M2313 2845 c0 -8 4 -15 9 -15 4 0 8 4 8 9 0 6 -4 12 -8 15 -5 3 -9
-1 -9 -9z"/>
<path d="M970 2840 c-9 -6 -10 -10 -3 -10 6 0 15 5 18 10 8 12 4 12 -15 0z"/>
<path d="M2210 2836 c0 -8 4 -17 9 -20 5 -4 7 3 4 14 -6 23 -13 26 -13 6z"/>
<path d="M2257 2818 c-5 -16 10 -48 23 -48 6 0 10 5 10 11 0 5 -4 7 -10 4 -10
-6 -14 7 -11 33 1 6 0 12 -3 12 -2 0 -6 -6 -9 -12z"/>
<path d="M871 2807 c-8 -10 -7 -14 2 -14 8 0 14 6 14 14 0 7 -1 13 -2 13 -2 0
-8 -6 -14 -13z"/>
<path d="M935 2810 c-7 -12 -7 -12 23 -15 12 -1 22 2 22 7 0 5 -10 6 -21 3
-15 -5 -19 -4 -15 4 4 6 5 11 2 11 -3 0 -8 -4 -11 -10z"/>
<path d="M896 2783 c-6 -14 -5 -15 5 -6 7 7 10 15 7 18 -3 3 -9 -2 -12 -12z"/>
<path d="M850 2777 c0 -3 12 -12 26 -22 15 -9 23 -12 20 -6 -7 11 -46 35 -46
28z"/>
<path d="M2345 2760 c-3 -6 1 -7 9 -4 18 7 21 14 7 14 -6 0 -13 -4 -16 -10z"/>
<path d="M2395 2750 c-4 -6 -12 -7 -18 -4 -7 4 -8 3 -4 -1 13 -15 34 -14 34 1
0 17 -4 18 -12 4z"/>
<path d="M775 2740 c-3 -5 -1 -10 4 -10 6 0 11 5 11 10 0 6 -2 10 -4 10 -3 0
-8 -4 -11 -10z"/>
<path d="M2495 2729 c-4 -6 -5 -12 -2 -15 2 -3 7 2 10 11 7 17 1 20 -8 4z"/>
<path d="M790 2700 c0 -5 7 -7 15 -4 8 4 15 8 15 10 0 2 -7 4 -15 4 -8 0 -15
-4 -15 -10z"/>
<path d="M774 2688 c6 -20 -10 -34 -17 -16 -4 9 -6 10 -6 1 -1 -18 15 -24 27
-10 8 9 8 17 0 27 -8 12 -9 12 -4 -2z"/>
<path d="M716 2678 c3 -5 10 -6 15 -3 13 9 11 12 -6 12 -8 0 -12 -4 -9 -9z"/>
<path d="M680 2655 c-7 -9 -11 -17 -9 -20 3 -2 10 5 17 15 14 24 10 26 -8 5z"/>
<path d="M710 2648 c0 -6 3 -8 7 -5 3 4 12 2 20 -4 8 -7 13 -8 13 -1 0 5 -7
13 -16 16 -22 8 -24 8 -24 -6z"/>
<path d="M2516 2647 c3 -10 9 -15 12 -12 3 3 0 11 -7 18 -10 9 -11 8 -5 -6z"/>
<path d="M624 2642 c4 -3 14 -7 22 -8 9 -1 13 0 10 4 -4 3 -14 7 -22 8 -9 1
-13 0 -10 -4z"/>
<path d="M2485 2620 c-3 -5 -2 -10 4 -10 5 0 13 5 16 10 3 6 2 10 -4 10 -5 0
-13 -4 -16 -10z"/>
<path d="M650 2614 c0 -2 9 -8 20 -14 11 -6 20 -7 20 -2 0 6 -9 12 -20 15 -11
3 -20 3 -20 1z"/>
<path d="M2575 2591 c-3 -5 -2 -12 3 -15 5 -3 9 1 9 9 0 17 -3 19 -12 6z"/>
<path d="M620 2560 c-9 -6 -10 -10 -3 -10 6 0 15 5 18 10 8 12 4 12 -15 0z"/>
<path d="M2577 2543 c-9 -15 17 -23 34 -11 11 8 11 9 -3 5 -9 -3 -18 -1 -21 6
-2 8 -5 8 -10 0z"/>
<path d="M2640 2520 c-9 -6 -10 -10 -3 -10 6 0 15 5 18 10 8 12 4 12 -15 0z"/>
<path d="M550 2500 c0 -5 5 -10 10 -10 6 0 10 5 10 10 0 6 -4 10 -10 10 -5 0
-10 -4 -10 -10z"/>
<path d="M2608 2503 c6 -2 9 -10 6 -15 -4 -7 -2 -8 5 -4 13 9 5 26 -12 25 -9
0 -8 -2 1 -6z"/>
<path d="M2670 2496 c0 -2 8 -10 18 -17 15 -13 16 -12 3 4 -13 16 -21 21 -21
13z"/>
<path d="M514 2455 c1 -8 8 -20 14 -25 8 -7 9 -7 3 1 -5 6 -7 18 -4 25 3 8 1
14 -5 14 -6 0 -9 -7 -8 -15z"/>
<path d="M2640 2451 c0 -6 4 -13 10 -16 6 -3 7 1 4 9 -7 18 -14 21 -14 7z"/>
<path d="M2706 2442 c-3 -5 1 -9 9 -9 8 0 12 4 9 9 -3 4 -7 8 -9 8 -2 0 -6 -4
-9 -8z"/>
<path d="M2712 2411 c-11 -7 -11 -9 0 -14 9 -3 15 1 15 9 0 8 -1 14 -1 14 -1
0 -7 -4 -14 -9z"/>
<path d="M2680 2396 c0 -2 7 -9 15 -16 9 -7 15 -8 15 -2 0 5 -7 12 -15 16 -8
3 -15 4 -15 2z"/>
<path d="M2735 2380 c-3 -5 -1 -10 4 -10 6 0 11 5 11 10 0 6 -2 10 -4 10 -3 0
-8 -4 -11 -10z"/>
<path d="M435 2350 c-3 -5 -1 -10 4 -10 6 0 11 5 11 10 0 6 -2 10 -4 10 -3 0
-8 -4 -11 -10z"/>
<path d="M2718 2353 c6 -2 9 -10 6 -15 -4 -7 -2 -8 5 -4 13 9 5 26 -12 25 -9
0 -8 -2 1 -6z"/>
<path d="M456 2335 c-9 -26 -7 -32 5 -12 6 10 9 21 6 23 -2 3 -7 -2 -11 -11z"/>
<path d="M410 2322 c0 -5 7 -9 15 -9 8 0 12 4 9 9 -3 4 -9 8 -15 8 -5 0 -9 -4
-9 -8z"/>
<path d="M2790 2300 c0 -5 5 -10 11 -10 5 0 7 5 4 10 -3 6 -8 10 -11 10 -2 0
-4 -4 -4 -10z"/>
<path d="M393 2285 c0 -8 4 -12 9 -9 4 3 8 9 8 15 0 5 -4 9 -8 9 -5 0 -9 -7
-9 -15z"/>
<path d="M430 2286 c0 -8 -6 -17 -12 -19 -10 -4 -10 -6 -1 -6 7 -1 17 8 23 19
7 14 7 20 0 20 -5 0 -10 -6 -10 -14z"/>
<path d="M2794 2265 c-4 -8 -11 -12 -17 -8 -6 3 -7 1 -3 -5 10 -16 14 -15 26
8 6 11 8 20 5 20 -3 0 -8 -7 -11 -15z"/>
<path d="M336 2262 c-3 -5 1 -9 9 -9 8 0 12 4 9 9 -3 4 -7 8 -9 8 -2 0 -6 -4
-9 -8z"/>
<path d="M2833 2250 c-1 -11 2 -22 6 -24 4 -3 7 4 6 14 -2 27 -10 33 -12 10z"/>
<path d="M2811 2242 c-1 -15 -5 -21 -13 -16 -7 5 -8 3 -3 -5 10 -18 28 2 22
25 -4 15 -5 14 -6 -4z"/>
<path d="M341 2204 c0 -11 3 -14 6 -6 3 7 2 16 -1 19 -3 4 -6 -2 -5 -13z"/>
<path d="M2822 2205 c3 -3 16 -8 28 -10 12 -2 20 -1 16 2 -4 4 -16 8 -28 10
-12 2 -19 1 -16 -2z"/>
<path d="M2820 2181 c0 -6 4 -13 10 -16 6 -3 7 1 4 9 -7 18 -14 21 -14 7z"/>
<path d="M314 2168 c-4 -6 0 -16 9 -23 9 -7 14 -14 11 -17 -3 -4 -1 -9 4 -12
6 -3 9 1 8 10 -1 8 -8 19 -15 24 -8 4 -10 13 -7 19 4 6 5 11 2 11 -3 0 -8 -5
-12 -12z"/>
<path d="M347 2164 c3 -8 10 -13 15 -12 16 6 14 21 -4 24 -11 1 -15 -3 -11
-12z"/>
<path d="M2880 2160 c-9 -6 -10 -10 -3 -10 6 0 15 5 18 10 8 12 4 12 -15 0z"/>
<path d="M2845 2152 c-10 -7 -18 -32 -10 -32 2 0 9 9 15 20 12 22 11 24 -5 12z"/>
<path d="M2872 2131 c-11 -7 -11 -9 0 -14 9 -3 15 1 15 9 0 8 -1 14 -1 14 -1
0 -7 -4 -14 -9z"/>
<path d="M276 2113 c-6 -14 -5 -15 5 -6 7 7 10 15 7 18 -3 3 -9 -2 -12 -12z"/>
<path d="M311 2094 c6 -7 16 -11 21 -8 11 7 3 17 -18 20 -12 2 -13 -1 -3 -12z"/>
<path d="M2860 2100 c0 -5 5 -10 11 -10 5 0 7 5 4 10 -3 6 -8 10 -11 10 -2 0
-4 -4 -4 -10z"/>
<path d="M2890 2070 c14 -9 7 -14 -13 -11 -5 1 -6 -3 -2 -9 5 -8 11 -8 21 1
15 12 10 29 -9 29 -7 0 -6 -4 3 -10z"/>
<path d="M311 2056 c-21 -12 -21 -14 -6 -20 10 -3 20 -4 23 -1 3 3 -1 5 -8 5
-9 0 -7 5 6 15 24 18 17 19 -15 1z"/>
<path d="M254 2037 c-4 -6 -4 -9 1 -5 4 4 14 3 22 -4 7 -6 15 -9 18 -7 2 3 -4
10 -15 17 -15 9 -21 9 -26 -1z"/>
<path d="M2920 2030 c6 -11 12 -20 14 -20 2 0 2 9 -1 20 -3 11 -9 20 -15 20
-5 0 -4 -9 2 -20z"/>
<path d="M270 1980 c0 -5 5 -10 10 -10 6 0 10 5 10 10 0 6 -4 10 -10 10 -5 0
-10 -4 -10 -10z"/>
<path d="M216 1938 c3 -5 10 -6 15 -3 13 9 11 12 -6 12 -8 0 -12 -4 -9 -9z"/>
<path d="M2953 1907 c0 -8 6 -14 14 -14 9 0 10 4 2 14 -6 7 -12 13 -14 13 -1
0 -2 -6 -2 -13z"/>
<path d="M215 1899 c-3 -4 2 -6 10 -5 21 3 28 13 10 13 -9 0 -18 -4 -20 -8z"/>
<path d="M236 1867 c3 -10 9 -15 12 -12 3 3 0 11 -7 18 -10 9 -11 8 -5 -6z"/>
<path d="M2952 1861 c-11 -7 -10 -9 3 -14 9 -4 14 -3 10 2 -3 5 1 12 7 14 7 3
9 6 3 6 -5 0 -16 -3 -23 -8z"/>
<path d="M2995 1861 c-3 -5 -2 -12 3 -15 5 -3 9 1 9 9 0 17 -3 19 -12 6z"/>
<path d="M199 1808 c14 -19 32 -15 30 5 0 8 -2 8 -6 -1 -4 -10 -8 -10 -21 0
-15 12 -16 11 -3 -4z"/>
<path d="M2944 1809 c-4 -8 -3 -9 4 -5 16 10 15 -7 0 -23 -11 -11 -10 -12 1
-6 11 6 13 3 9 -13 -3 -12 -3 -21 1 -20 3 0 8 -1 11 -2 16 -6 52 -6 55 1 3 4
-7 6 -21 4 -18 -2 -28 3 -33 19 -5 11 -6 26 -4 32 6 16 -14 27 -23 13z"/>
<path d="M177 1775 c-4 -8 -3 -16 1 -19 4 -3 9 4 9 15 2 23 -3 25 -10 4z"/>
<path d="M235 1781 c3 -6 -3 -14 -12 -20 -10 -6 -13 -11 -8 -11 13 0 35 20 35
32 0 4 -5 8 -11 8 -5 0 -8 -4 -4 -9z"/>
<path d="M236 1745 c-16 -12 -17 -15 -4 -15 9 0 18 7 22 15 7 18 6 18 -18 0z"/>
<path d="M189 1723 c-13 -16 -12 -17 4 -4 9 7 17 15 17 17 0 8 -8 3 -21 -13z"/>
<path d="M2950 1718 c0 -6 3 -8 7 -5 3 4 11 0 17 -8 8 -11 15 -12 26 -4 13 9
13 10 -2 6 -9 -3 -19 1 -22 9 -6 17 -26 19 -26 2z"/>
<path d="M236 1708 c3 -5 10 -6 15 -3 13 9 11 12 -6 12 -8 0 -12 -4 -9 -9z"/>
<path d="M189 1683 c-7 -10 -9 -15 -5 -11 5 4 15 0 23 -10 13 -15 13 -15 4 4
-6 12 -7 24 -4 28 3 3 4 6 1 6 -3 0 -12 -8 -19 -17z"/>
<path d="M2960 1680 c0 -5 5 -10 11 -10 5 0 7 5 4 10 -3 6 -8 10 -11 10 -2 0
-4 -4 -4 -10z"/>
<path d="M3016 1673 c-6 -14 -5 -15 5 -6 7 7 10 15 7 18 -3 3 -9 -2 -12 -12z"/>
<path d="M233 1660 c1 -21 10 -18 13 5 1 8 -2 15 -6 15 -5 0 -8 -9 -7 -20z"/>
<path d="M186 1642 c-3 -5 1 -9 9 -9 8 0 12 4 9 9 -3 4 -7 8 -9 8 -2 0 -6 -4
-9 -8z"/>
<path d="M2970 1635 c10 -12 10 -15 0 -15 -8 0 -11 -3 -7 -6 3 -3 10 -3 16 0
12 8 3 36 -11 36 -6 0 -5 -6 2 -15z"/>
<path d="M3010 1640 c0 -5 5 -10 11 -10 5 0 7 5 4 10 -3 6 -8 10 -11 10 -2 0
-4 -4 -4 -10z"/>
<path d="M3000 1580 c-8 -5 -12 -12 -9 -15 4 -3 12 1 19 10 14 17 11 19 -10 5z"/>
<path d="M2962 1561 c-11 -6 -9 -9 6 -13 15 -4 19 -2 15 8 -6 16 -4 16 -21 5z"/>
<path d="M3030 1540 c0 -5 5 -10 11 -10 5 0 7 5 4 10 -3 6 -8 10 -11 10 -2 0
-4 -4 -4 -10z"/>
<path d="M2990 1521 c0 -5 8 -15 18 -22 15 -12 16 -12 5 2 -7 9 -10 19 -6 22
3 4 1 7 -5 7 -7 0 -12 -4 -12 -9z"/>
<path d="M175 1500 c-3 -5 -1 -10 4 -10 6 0 11 5 11 10 0 6 -2 10 -4 10 -3 0
-8 -4 -11 -10z"/>
<path d="M228 1503 c7 -3 16 -2 19 1 4 3 -2 6 -13 5 -11 0 -14 -3 -6 -6z"/>
<path d="M210 1479 c0 -5 5 -7 10 -4 6 3 10 8 10 11 0 2 -4 4 -10 4 -5 0 -10
-5 -10 -11z"/>
<path d="M2980 1486 c0 -2 7 -7 16 -10 8 -3 12 -2 9 4 -6 10 -25 14 -25 6z"/>
<path d="M230 1466 c0 -2 7 -6 15 -10 8 -3 15 -1 15 4 0 6 -7 10 -15 10 -8 0
-15 -2 -15 -4z"/>
<path d="M2977 1463 c-4 -3 -7 -11 -7 -17 0 -6 5 -5 12 2 6 6 9 14 7 17 -3 3
-9 2 -12 -2z"/>
<path d="M213 1445 c0 -7 6 -11 14 -8 7 3 13 6 13 8 0 2 -6 5 -13 8 -8 3 -14
-1 -14 -8z"/>
<path d="M240 1430 c-9 -6 -10 -10 -3 -10 6 0 15 5 18 10 8 12 4 12 -15 0z"/>
<path d="M2978 1418 c5 -5 16 -8 23 -6 8 3 3 7 -10 11 -17 4 -21 3 -13 -5z"/>
<path d="M213 1405 c0 -7 6 -11 14 -8 7 3 13 6 13 8 0 2 -6 5 -13 8 -8 3 -14
-1 -14 -8z"/>
<path d="M250 1401 c0 -6 4 -13 10 -16 6 -3 7 1 4 9 -7 18 -14 21 -14 7z"/>
<path d="M236 1377 c3 -10 9 -15 12 -12 3 3 0 11 -7 18 -10 9 -11 8 -5 -6z"/>
<path d="M250 1346 c0 -2 7 -9 15 -16 13 -11 14 -10 9 4 -5 14 -24 23 -24 12z"/>
<path d="M233 1325 c0 -8 4 -15 9 -15 4 0 8 4 8 9 0 6 -4 12 -8 15 -5 3 -9 -1
-9 -9z"/>
<path d="M255 1300 c-3 -5 -2 -10 4 -10 5 0 13 5 16 10 3 6 2 10 -4 10 -5 0
-13 -4 -16 -10z"/>
<path d="M2952 1291 c-11 -7 -11 -9 0 -14 9 -3 15 1 15 9 0 8 -1 14 -1 14 -1
0 -7 -4 -14 -9z"/>
<path d="M260 1271 c0 -7 -5 -9 -12 -5 -7 5 -8 3 -3 -5 5 -9 10 -10 18 -2 6 6
8 14 4 18 -4 3 -7 1 -7 -6z"/>
<path d="M271 1237 c-1 -10 6 -20 14 -23 8 -4 12 -10 9 -15 -3 -5 0 -9 5 -9
15 0 14 18 -3 27 -7 4 -16 15 -19 23 -4 12 -6 11 -6 -3z"/>
<path d="M2937 1219 c7 -7 15 -10 18 -7 3 3 -2 9 -12 12 -14 6 -15 5 -6 -5z"/>
<path d="M2908 1188 c5 -5 16 -8 23 -6 8 3 3 7 -10 11 -17 4 -21 3 -13 -5z"/>
<path d="M2975 1189 c-4 -6 -5 -12 -2 -15 2 -3 7 2 10 11 7 17 1 20 -8 4z"/>
<path d="M268 1177 c7 -8 9 -17 5 -20 -3 -4 -1 -7 5 -7 18 0 14 27 -4 34 -13
5 -14 4 -6 -7z"/>
<path d="M2935 1160 c3 -5 8 -10 11 -10 2 0 4 5 4 10 0 6 -5 10 -11 10 -5 0
-7 -4 -4 -10z"/>
<path d="M2910 1141 c0 -6 4 -12 8 -15 5 -3 9 1 9 9 0 8 -4 15 -9 15 -4 0 -8
-4 -8 -9z"/>
<path d="M331 1093 c12 -15 12 -16 -3 -10 -10 3 -18 2 -18 -3 0 -11 23 -14 33
-4 8 8 -3 34 -15 34 -6 0 -4 -8 3 -17z"/>
<path d="M2910 1078 c0 -4 4 -8 9 -8 6 0 12 4 15 8 3 5 -1 9 -9 9 -8 0 -15 -4
-15 -9z"/>
<path d="M2956 1073 c-6 -14 -5 -15 5 -6 7 7 10 15 7 18 -3 3 -9 -2 -12 -12z"/>
<path d="M345 1060 c-7 -11 14 -55 22 -46 3 3 0 12 -6 20 -7 8 -10 20 -6 26 3
5 4 10 1 10 -3 0 -8 -4 -11 -10z"/>
<path d="M2861 1041 c-8 -17 -17 -31 -21 -31 -3 0 -7 -7 -7 -15 0 -21 13 -10
27 25 12 28 14 29 30 15 15 -13 17 -13 17 0 0 8 -3 13 -5 10 -3 -3 -10 3 -17
11 -10 14 -13 12 -24 -15z"/>
<path d="M296 1018 c3 -5 10 -6 15 -3 13 9 11 12 -6 12 -8 0 -12 -4 -9 -9z"/>
<path d="M330 999 c0 -5 4 -8 9 -4 6 3 14 -1 18 -10 7 -12 11 -11 22 8 13 20
13 21 -2 9 -10 -9 -17 -10 -22 -2 -8 13 -25 13 -25 -1z"/>
<path d="M2870 989 c-22 -18 -22 -19 -3 -10 12 6 25 16 28 21 9 15 3 12 -25
-11z"/>
<path d="M384 975 c-3 -8 -4 -20 -2 -27 3 -7 7 -1 10 15 6 29 1 36 -8 12z"/>
<path d="M335 971 c-3 -5 -2 -12 3 -15 5 -3 9 1 9 9 0 17 -3 19 -12 6z"/>
<path d="M400 963 c0 -6 8 -17 18 -24 16 -13 16 -13 2 6 -8 11 -16 22 -17 24
-2 2 -3 0 -3 -6z"/>
<path d="M2820 960 c0 -5 5 -10 10 -10 6 0 10 5 10 10 0 6 -4 10 -10 10 -5 0
-10 -4 -10 -10z"/>
<path d="M395 913 c1 -10 -1 -23 -6 -29 -5 -6 -4 -11 4 -11 7 0 13 13 14 29 0
15 -3 28 -7 28 -5 0 -7 -8 -5 -17z"/>
<path d="M2815 899 c-4 -6 -5 -12 -2 -15 2 -3 7 2 10 11 7 17 1 20 -8 4z"/>
<path d="M450 849 c0 -5 -6 -7 -12 -3 -7 4 -10 4 -6 -1 4 -4 4 -13 -2 -19 -6
-8 -3 -12 8 -12 11 0 18 9 18 23 1 13 0 23 -2 23 -2 0 -4 -5 -4 -11z"/>
<path d="M2775 839 c-4 -5 2 -6 12 -2 16 6 17 5 3 -13 -14 -19 -14 -19 8 0 12
11 22 20 22 20 0 7 -41 3 -45 -5z"/>
<path d="M2748 813 c7 -3 16 -2 19 1 4 3 -2 6 -13 5 -11 0 -14 -3 -6 -6z"/>
<path d="M416 773 c-6 -14 -5 -15 5 -6 7 7 10 15 7 18 -3 3 -9 -2 -12 -12z"/>
<path d="M505 779 c-4 -6 -5 -12 -2 -15 2 -3 7 2 10 11 7 17 1 20 -8 4z"/>
<path d="M2752 771 c7 -9 13 -18 15 -20 1 -2 1 5 0 16 0 11 -7 20 -14 20 -10
0 -10 -4 -1 -16z"/>
<path d="M2710 749 c0 -5 -6 -7 -12 -3 -7 4 -9 3 -5 -1 13 -15 34 -14 34 1 0
8 -4 14 -9 14 -4 0 -8 -5 -8 -11z"/>
<path d="M536 734 c-8 -22 -4 -25 11 -9 7 8 9 16 4 19 -5 3 -12 -1 -15 -10z"/>
<path d="M476 718 c3 -5 10 -6 15 -3 13 9 11 12 -6 12 -8 0 -12 -4 -9 -9z"/>
<path d="M2671 713 c6 -7 17 -13 23 -12 7 0 6 2 -2 6 -6 2 -10 8 -8 12 3 4 -1
8 -9 8 -11 0 -12 -4 -4 -14z"/>
<path d="M2646 705 c4 -8 11 -15 16 -15 6 0 5 6 -2 15 -7 8 -14 15 -16 15 -2
0 -1 -7 2 -15z"/>
<path d="M563 693 c9 -2 15 -8 12 -13 -3 -4 2 -11 10 -14 13 -4 14 -2 5 14 -6
11 -18 19 -28 19 -16 -1 -15 -2 1 -6z"/>
<path d="M2616 675 c-9 -26 -7 -32 5 -12 6 10 9 21 6 23 -2 3 -7 -2 -11 -11z"/>
<path d="M2655 649 c-4 -6 -5 -12 -2 -15 2 -3 7 2 10 11 7 17 1 20 -8 4z"/>
<path d="M610 599 c0 -5 4 -8 9 -5 5 3 14 -1 21 -9 10 -12 16 -13 26 -4 8 6
14 17 14 23 0 6 -5 3 -11 -7 -9 -15 -12 -16 -25 -2 -18 17 -34 20 -34 4z"/>
<path d="M2570 600 c0 -5 5 -10 10 -10 6 0 10 5 10 10 0 6 -4 10 -10 10 -5 0
-10 -4 -10 -10z"/>
<path d="M678 570 c-14 -13 -15 -17 -3 -17 8 0 17 7 20 15 8 21 3 22 -17 2z"/>
<path d="M2605 580 c-3 -6 1 -7 9 -4 18 7 21 14 7 14 -6 0 -13 -4 -16 -10z"/>
<path d="M705 561 c-3 -5 -1 -12 5 -16 5 -3 10 -3 10 1 0 3 7 1 15 -6 9 -7 18
-11 21 -8 2 3 -7 13 -20 22 -14 9 -28 12 -31 7z"/>
<path d="M2475 534 c-10 -8 -14 -14 -9 -14 6 0 16 6 23 13 11 10 13 9 8 -5 -4
-10 -2 -18 3 -18 12 0 13 27 2 34 -4 2 -16 -2 -27 -10z"/>
<path d="M715 520 c3 -5 8 -10 11 -10 2 0 4 5 4 10 0 6 -5 10 -11 10 -5 0 -7
-4 -4 -10z"/>
<path d="M735 480 c3 -5 8 -10 11 -10 2 0 4 5 4 10 0 6 -5 10 -11 10 -5 0 -7
-4 -4 -10z"/>
<path d="M787 468 c-6 -22 -5 -22 8 -4 13 17 15 17 21 3 3 -10 11 -17 17 -17
5 0 2 9 -8 20 -23 26 -31 25 -38 -2z"/>
<path d="M2450 478 c0 -11 12 -10 30 2 12 7 10 9 -8 7 -12 0 -22 -5 -22 -9z"/>
<path d="M850 464 c0 -5 14 -20 30 -33 16 -13 28 -27 25 -31 -3 -5 -1 -12 5
-15 8 -5 7 -12 -1 -23 -10 -13 -9 -13 7 1 15 14 16 19 6 26 -8 5 -13 11 -12
15 3 11 -4 20 -33 45 -15 14 -27 20 -27 15z"/>
<path d="M2348 448 c-10 -10 -14 -18 -9 -18 10 0 36 29 30 34 -2 1 -12 -6 -21
-16z"/>
<path d="M795 441 c-3 -5 -2 -12 3 -15 5 -3 9 1 9 9 0 17 -3 19 -12 6z"/>
<path d="M2376 442 c-2 -4 0 -14 6 -22 8 -12 9 -11 4 4 -5 15 -2 17 14 13 11
-3 18 -1 14 4 -6 11 -31 12 -38 1z"/>
<path d="M2445 440 c-3 -6 1 -7 9 -4 18 7 21 14 7 14 -6 0 -13 -4 -16 -10z"/>
<path d="M825 420 c6 -8 10 -18 10 -22 0 -3 2 -8 5 -10 3 -1 4 -1 3 1 -2 2 5
10 15 18 9 8 11 12 4 8 -7 -4 -20 -1 -29 7 -14 11 -15 11 -8 -2z"/>
<path d="M2310 410 c0 -5 7 -7 15 -4 8 4 15 8 15 10 0 2 -7 4 -15 4 -8 0 -15
-4 -15 -10z"/>
<path d="M946 402 c-3 -6 -1 -14 5 -17 15 -10 25 3 12 16 -7 7 -13 7 -17 1z"/>
<path d="M2265 400 c-3 -5 -1 -10 4 -10 6 0 11 5 11 10 0 6 -2 10 -4 10 -3 0
-8 -4 -11 -10z"/>
<path d="M2245 363 c-11 -25 -15 -46 -7 -38 4 4 7 10 7 13 0 4 4 13 9 20 4 7
6 15 3 18 -2 3 -8 -3 -12 -13z"/>
<path d="M935 360 c-8 -13 5 -13 25 0 13 8 13 10 -2 10 -9 0 -20 -4 -23 -10z"/>
<path d="M968 343 c6 -2 9 -10 6 -15 -4 -7 -2 -8 5 -4 13 9 5 26 -12 25 -9 0
-8 -2 1 -6z"/>
<path d="M2266 338 c3 -5 10 -6 15 -3 13 9 11 12 -6 12 -8 0 -12 -4 -9 -9z"/>
<path d="M1000 326 c0 -2 7 -7 16 -10 8 -3 12 -2 9 4 -6 10 -25 14 -25 6z"/>
<path d="M1007 299 c7 -7 15 -10 18 -7 3 3 -2 9 -12 12 -14 6 -15 5 -6 -5z"/>
<path d="M2050 299 c0 -5 5 -7 10 -4 6 3 10 8 10 11 0 2 -4 4 -10 4 -5 0 -10
-5 -10 -11z"/>
<path d="M2065 279 c-4 -6 -4 -13 -1 -16 3 -4 6 -1 6 6 0 7 5 9 10 6 6 -3 10
-1 10 4 0 14 -17 14 -25 0z"/>
<path d="M1115 270 c3 -5 8 -10 11 -10 2 0 4 5 4 10 0 6 -5 10 -11 10 -5 0 -7
-4 -4 -10z"/>
<path d="M1936 268 c3 -4 -2 -8 -10 -8 -8 0 -20 -10 -26 -22 -10 -21 -10 -21
3 -5 8 9 19 17 24 17 6 0 16 6 22 13 8 10 7 14 -4 14 -8 0 -12 -4 -9 -9z"/>
<path d="M2024 264 c-18 -14 -18 -15 4 -4 12 6 22 13 22 15 0 8 -5 6 -26 -11z"/>
<path d="M1093 245 c0 -8 4 -12 9 -9 5 3 6 10 3 15 -9 13 -12 11 -12 -6z"/>
<path d="M1248 242 c-16 -17 -16 -18 1 -18 9 0 18 8 18 18 2 21 2 21 -19 0z"/>
<path d="M1336 252 c-3 -4 4 -9 15 -9 23 -2 25 3 4 10 -8 4 -16 3 -19 -1z"/>
<path d="M1390 243 c6 -13 16 -23 22 -23 6 0 5 -7 -3 -17 -13 -16 -12 -17 4
-4 14 11 15 16 5 25 -6 6 -18 18 -26 26 -11 13 -12 12 -2 -7z"/>
<path d="M1430 243 c0 -6 8 -17 18 -24 16 -13 16 -13 2 6 -8 11 -16 22 -17 24
-2 2 -3 0 -3 -6z"/>
<path d="M1716 235 c4 -8 8 -15 10 -15 2 0 4 7 4 15 0 8 -4 15 -10 15 -5 0 -7
-7 -4 -15z"/>
<path d="M1763 243 c-7 -2 -13 -8 -13 -13 0 -13 29 -20 36 -8 5 7 2 8 -6 3
-10 -6 -12 -4 -7 8 3 10 5 17 4 16 -1 0 -8 -3 -14 -6z"/>
<path d="M1800 240 c0 -5 5 -10 11 -10 5 0 7 5 4 10 -3 6 -8 10 -11 10 -2 0
-4 -4 -4 -10z"/>
<path d="M1946 242 c-2 -4 4 -8 14 -8 10 0 16 4 14 8 -3 4 -9 8 -14 8 -5 0
-11 -4 -14 -8z"/>
<path d="M2021 236 c-9 -11 -9 -16 1 -22 7 -4 10 -4 6 1 -4 4 -3 14 3 22 6 7
9 13 6 13 -2 0 -10 -6 -16 -14z"/>
<path d="M1537 233 c-4 -3 -7 -11 -7 -17 0 -6 5 -5 12 2 6 6 9 14 7 17 -3 3
-9 2 -12 -2z"/>
<path d="M1570 231 c0 -5 5 -13 10 -16 6 -3 10 -2 10 4 0 5 -4 13 -10 16 -5 3
-10 2 -10 -4z"/>
<path d="M1136 213 c-6 -14 -5 -15 5 -6 7 7 10 15 7 18 -3 3 -9 -2 -12 -12z"/>
<path d="M1360 226 c0 -2 7 -7 16 -10 8 -3 12 -2 9 4 -6 10 -25 14 -25 6z"/>
<path d="M1833 205 c0 -8 4 -12 9 -9 5 3 6 10 3 15 -9 13 -12 11 -12 -6z"/>
<path d="M1935 211 c-3 -5 -2 -12 3 -15 5 -3 9 1 9 9 0 17 -3 19 -12 6z"/>
<path d="M1300 206 c0 -2 8 -10 18 -17 15 -13 16 -12 3 4 -13 16 -21 21 -21
13z"/>
<path d="M1350 199 c0 -5 5 -7 10 -4 6 3 10 8 10 11 0 2 -4 4 -10 4 -5 0 -10
-5 -10 -11z"/>
<path d="M1473 191 c0 -11 5 -18 9 -15 4 3 5 11 1 19 -7 21 -12 19 -10 -4z"/>
<path d="M1540 200 c-8 -5 -10 -10 -5 -10 6 0 17 5 25 10 8 5 11 10 5 10 -5 0
-17 -5 -25 -10z"/>
<path d="M1596 202 c-3 -5 1 -9 9 -9 8 0 12 4 9 9 -3 4 -7 8 -9 8 -2 0 -6 -4
-9 -8z"/>
<path d="M1613 165 c0 -8 4 -12 9 -9 5 3 6 10 3 15 -9 13 -12 11 -12 -6z"/>
<path d="M1436 158 c3 -5 10 -6 15 -3 13 9 11 12 -6 12 -8 0 -12 -4 -9 -9z"/>
</g>
</svg>
